<?xml version="1.0" encoding="UTF-8" standalone="no"?>
<!-- Created with Inkscape (http://www.inkscape.org/) -->

<svg
   xmlns:dc="http://purl.org/dc/elements/1.1/"
   xmlns:cc="http://creativecommons.org/ns#"
   xmlns:rdf="http://www.w3.org/1999/02/22-rdf-syntax-ns#"
   xmlns:svg="http://www.w3.org/2000/svg"
   xmlns="http://www.w3.org/2000/svg"
   xmlns:xlink="http://www.w3.org/1999/xlink"
   xmlns:sodipodi="http://sodipodi.sourceforge.net/DTD/sodipodi-0.dtd"
   xmlns:inkscape="http://www.inkscape.org/namespaces/inkscape"
   width="200"
   height="70"
   viewBox="0 0 187.5 65.625"
   id="svg2"
   version="1.1"
   inkscape:version="0.92.1 r"
   sodipodi:docname="logo.svg">
  <defs
     id="defs4">
    <linearGradient
       inkscape:collect="always"
       id="linearGradient4268">
      <stop
         style="stop-color:#ffffff;stop-opacity:1;"
         offset="0"
         id="stop4270" />
      <stop
         style="stop-color:#ffffff;stop-opacity:0;"
         offset="1"
         id="stop4272" />
    </linearGradient>
    <linearGradient
       inkscape:collect="always"
       id="linearGradient4259">
      <stop
         style="stop-color:#fc963a;stop-opacity:1;"
         offset="0"
         id="stop4261" />
      <stop
         style="stop-color:#fc963a;stop-opacity:0;"
         offset="1"
         id="stop4263" />
    </linearGradient>
    <linearGradient
       id="linear0-5"
       gradientUnits="userSpaceOnUse"
       x1="40"
       y1="17"
       x2="54"
       y2="31"
       gradientTransform="scale(0.34375)">
      <stop
         offset="0"
         style="stop-color:rgb(2.352941%,2.352941%,2.352941%);stop-opacity:1;"
         id="stop4351" />
      <stop
         offset="1"
         style="stop-color:rgb(0%,0%,0%);stop-opacity:0;"
         id="stop4353" />
    </linearGradient>
    <filter
       height="1"
       width="1"
       y="0"
       x="0"
       filterUnits="objectBoundingBox"
       id="alpha">
      <feColorMatrix
         id="feColorMatrix4141"
         values="0 0 0 0 1 0 0 0 0 1 0 0 0 0 1 0 0 0 1 0"
         in="SourceGraphic"
         type="matrix" />
    </filter>
    <mask
       id="mask0">
      <g
         id="g4144"
         style="filter:url(#alpha)">
        <rect
           id="rect4146"
           style="fill:#000000;fill-opacity:0.50196078;stroke:none"
           height="22"
           width="22"
           y="0"
           x="0" />
      </g>
    </mask>
    <clipPath
       id="clip1">
      <rect
         id="rect4149"
         height="22"
         width="22"
         x="0"
         y="0" />
    </clipPath>
    <g
       clip-path="url(#clip1)"
       id="surface6">
      <path
         id="path4152"
         d="M 3.4375,1.375 H 13.75 V 1.03125 H 3.4375 Z m 0,0"
         style="fill:#ffffff;fill-opacity:1;fill-rule:nonzero;stroke:none"
         inkscape:connector-curvature="0" />
    </g>
    <mask
       id="mask1">
      <g
         id="g4155"
         style="filter:url(#alpha)">
        <rect
           id="rect4157"
           style="fill:#000000;fill-opacity:0.25097997;stroke:none"
           height="22"
           width="22"
           y="0"
           x="0" />
      </g>
    </mask>
    <clipPath
       id="clip2">
      <rect
         id="rect4160"
         height="22"
         width="22"
         x="0"
         y="0" />
    </clipPath>
    <g
       clip-path="url(#clip2)"
       id="surface9">
      <path
         id="path4163"
         d="m 3.4375,20.96875 h 15.125 V 20.625 H 3.4375 Z m 0,0"
         style="fill:#000000;fill-opacity:1;fill-rule:nonzero;stroke:none"
         inkscape:connector-curvature="0" />
    </g>
    <mask
       id="mask2">
      <g
         id="g4166"
         style="filter:url(#alpha)">
        <rect
           id="rect4168"
           style="fill:#000000;fill-opacity:0.50196078;stroke:none"
           height="22"
           width="22"
           y="0"
           x="0" />
      </g>
    </mask>
    <clipPath
       id="clip3">
      <rect
         id="rect4171"
         height="22"
         width="22"
         x="0"
         y="0" />
    </clipPath>
    <g
       clip-path="url(#clip3)"
       id="surface12">
      <path
         id="path4174"
         d="M 18.5625,5.84375 13.75,1.03125 v 4.8125 z m 0,0"
         style="fill:#ffffff;fill-opacity:1;fill-rule:evenodd;stroke:none"
         inkscape:connector-curvature="0" />
    </g>
    <mask
       id="mask3">
      <g
         id="g4177"
         style="filter:url(#alpha)">
        <rect
           id="rect4179"
           style="fill:#000000;fill-opacity:0.10196102;stroke:none"
           height="22"
           width="22"
           y="0"
           x="0" />
      </g>
    </mask>
    <linearGradient
       gradientTransform="scale(0.34375)"
       y2="31"
       x2="54"
       y1="17"
       x1="40"
       gradientUnits="userSpaceOnUse"
       id="linear0">
      <stop
         id="stop4182"
         style="stop-color:rgb(2.352941%,2.352941%,2.352941%);stop-opacity:1;"
         offset="0" />
      <stop
         id="stop4184"
         style="stop-color:rgb(0%,0%,0%);stop-opacity:0;"
         offset="1" />
    </linearGradient>
    <clipPath
       id="clip4">
      <rect
         id="rect4187"
         height="22"
         width="22"
         x="0"
         y="0" />
    </clipPath>
    <g
       clip-path="url(#clip4)"
       id="surface15">
      <path
         id="path4190"
         d="m 13.75,5.84375 4.8125,4.8125 v -4.8125 z m 0,0"
         style="fill:url(#linear0);fill-rule:evenodd;stroke:none"
         inkscape:connector-curvature="0" />
    </g>
    <linearGradient
       gradientTransform="matrix(0.34375,0,0,0.34375,-16.5,-114.24875)"
       y2="336.35999"
       x2="0"
       y1="392.35999"
       x1="0"
       gradientUnits="userSpaceOnUse"
       id="linear1">
      <stop
         id="stop4193"
         style="stop-color:rgb(100%,100%,100%);stop-opacity:0;"
         offset="0" />
      <stop
         id="stop4195"
         style="stop-color:rgb(100%,100%,100%);stop-opacity:0.2;"
         offset="1" />
    </linearGradient>
    <mask
       id="mask4">
      <g
         id="g4198"
         style="filter:url(#alpha)">
        <rect
           id="rect4200"
           style="fill:#000000;fill-opacity:0.74901997;stroke:none"
           height="22"
           width="22"
           y="0"
           x="0" />
      </g>
    </mask>
    <clipPath
       id="clip5">
      <rect
         id="rect4203"
         height="22"
         width="22"
         x="0"
         y="0" />
    </clipPath>
    <g
       clip-path="url(#clip5)"
       id="surface18">
      <path
         id="path4206"
         d="m 7.578125,7.550781 v 1.03125 c 3.605469,0 6.53125,2.925781 6.53125,6.53125 h 1.03125 c 0,-4.175781 -3.386719,-7.5625 -7.5625,-7.5625 m 0,2.40625 v 1.03125 c 2.277344,0 4.125,1.847657 4.125,4.125 h 1.03125 c 0,-2.847656 -2.308594,-5.15625 -5.15625,-5.15625 m 1.203125,2.75 c -0.667969,0 -1.203125,0.539063 -1.203125,1.203125 0,0.667969 0.535156,1.203125 1.203125,1.203125 0.664062,0 1.203125,-0.535156 1.203125,-1.203125 0,-0.664062 -0.539063,-1.203125 -1.203125,-1.203125"
         style="fill:#ffffff;fill-opacity:1;fill-rule:nonzero;stroke:none"
         inkscape:connector-curvature="0" />
    </g>
    <linearGradient
       inkscape:collect="always"
       xlink:href="#linearGradient4259"
       id="linearGradient4265"
       x1="93.726387"
       y1="1004.6939"
       x2="93.726387"
       y2="1025.1495"
       gradientUnits="userSpaceOnUse"
       gradientTransform="translate(-2.2500006,22.598305)" />
    <linearGradient
       inkscape:collect="always"
       xlink:href="#linearGradient4268"
       id="linearGradient4274"
       x1="82.961601"
       y1="1004.7012"
       x2="82.961601"
       y2="1025.1555"
       gradientUnits="userSpaceOnUse"
       gradientTransform="translate(-2.2500006,22.598305)" />
  </defs>
  <sodipodi:namedview
     id="base"
     pagecolor="#ffffff"
     bordercolor="#666666"
     borderopacity="1.0"
     inkscape:pageopacity="0.0"
     inkscape:pageshadow="2"
     inkscape:zoom="5.6568542"
     inkscape:cx="103.36017"
     inkscape:cy="34.071519"
     inkscape:document-units="px"
     inkscape:current-layer="layer1"
     showgrid="false"
     units="px"
     inkscape:window-width="1920"
     inkscape:window-height="1017"
     inkscape:window-x="0"
     inkscape:window-y="36"
     inkscape:window-maximized="1" />
  <metadata
     id="metadata7">
    <rdf:RDF>
      <cc:Work
         rdf:about="">
        <dc:format>image/svg+xml</dc:format>
        <dc:type
           rdf:resource="http://purl.org/dc/dcmitype/StillImage" />
        <dc:title></dc:title>
      </cc:Work>
    </rdf:RDF>
  </metadata>
  <g
     inkscape:label="Layer 1"
     inkscape:groupmode="layer"
     id="layer1"
     transform="translate(0,-986.73716)">
    <g
       transform="matrix(2.3889598,0,0,-2.3889598,-3.5966082,3511.4603)"
       id="layer1-8-7"
       style="fill:#f27935"
       inkscape:label="Capa 1" />
    <g
       transform="matrix(2.3889598,0,0,2.3889598,-5.8466088,-1481.9236)"
       id="layer1-8"
       style="fill:#f27935"
       inkscape:label="Capa 1">
      <path
         id="path4171-5"
         transform="translate(0,1030.3622)"
         d="m 3,3 v 2 a 14,14 0 0 1 14,14 h 2 A 16,16 0 0 0 3,3 Z m 0,5 v 2 a 9,9 0 0 1 9,9 h 2 A 11,11 0 0 0 3,8 Z m 2.5,6 A 2.5,2.5 0 0 0 3,16.5 2.5,2.5 0 0 0 5.5,19 2.5,2.5 0 0 0 8,16.5 2.5,2.5 0 0 0 5.5,14 Z"
         style="fill:#fc963a;fill-opacity:1;stroke-width:0.1;stroke-linecap:round"
         inkscape:connector-curvature="0" />
    </g>
    <path
       inkscape:connector-curvature="0"
       id="path4203"
       style="font-style:normal;font-variant:normal;font-weight:normal;font-stretch:normal;font-size:medium;line-height:125%;font-family:sans-serif;-inkscape-font-specification:sans-serif;letter-spacing:0px;word-spacing:0px;fill:#ffffff;fill-opacity:1;stroke:none;stroke-width:1px;stroke-linecap:butt;stroke-linejoin:miter;stroke-opacity:1"
       d="m 58.381877,1024.7257 h -2.033692 l -11.416015,-21.0034 -0.01709,21.0034 h -2.033691 v -24.88283 h 2.033691 l 11.416016,20.96923 0.01709,-20.96923 h 2.033692 z" />
    <path
       inkscape:connector-curvature="0"
       id="path4205"
       style="font-style:normal;font-variant:normal;font-weight:normal;font-stretch:normal;font-size:medium;line-height:125%;font-family:sans-serif;-inkscape-font-specification:sans-serif;letter-spacing:0px;word-spacing:0px;fill:#ffffff;fill-opacity:1;stroke:none;stroke-width:1px;stroke-linecap:butt;stroke-linejoin:miter;stroke-opacity:1"
       d="m 77.556682,1012.797 h -10.97168 v 10.1513 h 12.646484 v 1.7774 H 64.55131 v -24.88283 h 14.611817 v 1.79443 H 66.585002 v 9.3823 h 10.97168 z" />
    <path
       inkscape:connector-curvature="0"
       id="path4207"
       style="font-style:normal;font-variant:normal;font-weight:normal;font-stretch:normal;font-size:medium;line-height:125%;font-family:sans-serif;-inkscape-font-specification:sans-serif;letter-spacing:0px;word-spacing:0px;fill:#ffffff;fill-opacity:1;stroke:none;stroke-width:1px;stroke-linecap:butt;stroke-linejoin:miter;stroke-opacity:1"
       d="m 88.049846,1019.086 0.136718,1.7432 0.205079,-1.7432 3.623046,-19.24312 h 1.777344 l 3.623047,19.24312 0.205078,1.7945 0.153811,-1.7945 2.546381,-19.24312 h 1.91407 l -3.503421,24.88282 h -2.033692 l -3.793946,-20.7471 -3.811035,20.7471 h -2.033691 l -3.503418,-24.88282 h 1.931152 z" />
    <path
       inkscape:connector-curvature="0"
       id="path4209"
       style="font-style:normal;font-variant:normal;font-weight:normal;font-stretch:normal;font-size:medium;line-height:125%;font-family:sans-serif;-inkscape-font-specification:sans-serif;letter-spacing:0px;word-spacing:0px;fill:#ffffff;fill-opacity:1;stroke:none;stroke-width:1px;stroke-linecap:butt;stroke-linejoin:miter;stroke-opacity:1"
       d="m 120.00785,1018.6075 q 0,-0.8716 -0.27343,-1.5552 -0.25635,-0.7006 -0.73487,-1.2475 -0.46142,-0.5469 -1.07666,-0.957 -0.61523,-0.4273 -1.31591,-0.752 -0.70069,-0.3247 -1.43555,-0.5811 -0.73486,-0.2563 -1.41846,-0.4785 -0.87158,-0.2734 -1.77734,-0.5981 -0.88867,-0.3418 -1.74317,-0.7691 -0.8374,-0.4443 -1.58935,-0.9912 -0.73486,-0.5639 -1.29883,-1.2646 -0.54687,-0.7007 -0.87158,-1.5552 -0.30762,-0.8716 -0.30762,-1.9311 0,-1.5552 0.68359,-2.7515 0.70069,-1.1963 1.81153,-2.0166 1.11084,-0.8203 2.49512,-1.23047 1.40136,-0.42725 2.81982,-0.42725 1.58936,0 3.0249,0.52982 1.43555,0.5127 2.51221,1.4526 1.09375,0.9399 1.74316,2.29 0.64942,1.333 0.70069,2.9737 h -2.06787 q -0.13672,-1.2134 -0.59815,-2.2046 -0.46142,-1.0083 -1.23047,-1.7261 -0.76904,-0.7178 -1.81152,-1.1108 -1.02539,-0.4102 -2.27295,-0.4102 -1.04248,0 -2.06787,0.2905 -1.0083,0.2735 -1.82861,0.8545 -0.80323,0.564 -1.31592,1.4356 -0.49561,0.8545 -0.49561,2.0166 0,1.2475 0.58106,2.1191 0.59814,0.8716 1.5039,1.4697 0.90576,0.5982 1.98242,1.0083 1.09375,0.3931 2.06788,0.6836 0.90576,0.2735 1.82861,0.6324 0.92285,0.3418 1.77734,0.8032 0.87158,0.4614 1.62354,1.0425 0.75195,0.5639 1.29883,1.2988 0.56396,0.7349 0.87158,1.6406 0.32471,0.8887 0.32471,1.9824 0,1.6407 -0.71778,2.854 -0.70068,1.2134 -1.82861,2.0337 -1.12793,0.8033 -2.56348,1.2134 -1.43555,0.3931 -2.90527,0.3931 -1.64063,0 -3.17871,-0.4785 -1.53809,-0.4786 -2.75147,-1.4014 -1.19629,-0.9229 -1.94824,-2.273 -0.75195,-1.3671 -0.80322,-3.1103 h 2.06787 q 0.15381,1.333 0.70068,2.3755 0.56397,1.0254 1.43555,1.7261 0.87158,0.6835 2.0166,1.0424 1.14502,0.3418 2.46094,0.3418 1.09375,0 2.13623,-0.2734 1.05957,-0.2734 1.89697,-0.8374 0.8374,-0.5811 1.3501,-1.4526 0.51269,-0.8887 0.51269,-2.1192 z" />
    <path
       inkscape:connector-curvature="0"
       id="path4211"
       style="font-style:normal;font-variant:normal;font-weight:300;font-stretch:normal;font-size:35px;line-height:125%;font-family:'Roboto Mono Light for Powerline';-inkscape-font-specification:'Roboto Mono Light for Powerline Light';letter-spacing:0px;word-spacing:0px;fill:#fc963a;fill-opacity:1;stroke:none;stroke-width:1px;stroke-linecap:butt;stroke-linejoin:miter;stroke-opacity:1"
       d="m 142.32719,1024.7257 h -2.03369 l -11.41602,-21.0034 -0.0171,21.0034 h -2.03369 v -24.88283 h 2.03369 l 11.41602,20.96923 0.0171,-20.96923 h 2.03369 z" />
    <path
       inkscape:connector-curvature="0"
       id="path4213"
       style="font-style:normal;font-variant:normal;font-weight:300;font-stretch:normal;font-size:35px;line-height:125%;font-family:'Roboto Mono Light for Powerline';-inkscape-font-specification:'Roboto Mono Light for Powerline Light';letter-spacing:0px;word-spacing:0px;fill:#fc963a;fill-opacity:1;stroke:none;stroke-width:1px;stroke-linecap:butt;stroke-linejoin:miter;stroke-opacity:1"
       d="m 163.91166,1013.942 q -0.0171,1.2646 -0.22216,2.5977 -0.20508,1.3159 -0.64942,2.5634 -0.42725,1.2305 -1.09375,2.3242 -0.6665,1.0767 -1.58935,1.897 -0.90577,0.8032 -2.10206,1.2818 -1.19628,0.4614 -2.6831,0.4614 -1.46973,0 -2.66602,-0.4614 -1.19629,-0.4786 -2.13623,-1.2818 -0.92285,-0.8203 -1.60644,-1.914 -0.66651,-1.0938 -1.11084,-2.3243 -0.42725,-1.2475 -0.64942,-2.5634 -0.20507,-1.316 -0.22216,-2.5806 v -3.2813 q 0.0171,-1.2646 0.22216,-2.5805 0.22217,-1.333 0.64942,-2.5635 0.42724,-1.2476 1.09375,-2.3413 0.68359,-1.0938 1.60644,-1.9141 0.92285,-0.8203 2.10205,-1.2817 1.19629,-0.47852 2.68311,-0.47852 1.48682,0 2.68311,0.47852 1.19628,0.4614 2.11914,1.2817 0.93994,0.8033 1.60644,1.897 0.6665,1.0938 1.09375,2.3413 0.44434,1.2305 0.64942,2.5635 0.20507,1.3159 0.22216,2.5976 z m -2.0166,-3.3154 q -0.0171,-0.9912 -0.15381,-2.0679 -0.13672,-1.0767 -0.44433,-2.1021 -0.30762,-1.0253 -0.80323,-1.9482 -0.47851,-0.9399 -1.17919,-1.6406 -0.70069,-0.7007 -1.64063,-1.1109 -0.93994,-0.4101 -2.13623,-0.4101 -1.19629,0 -2.13623,0.4272 -0.92285,0.4102 -1.62354,1.1109 -0.70068,0.7006 -1.19629,1.6406 -0.47851,0.9228 -0.78613,1.9482 -0.30762,1.0254 -0.44433,2.1021 -0.13672,1.0766 -0.15381,2.0508 v 3.3154 q 0.0171,0.9912 0.15381,2.0679 0.1538,1.0595 0.46142,2.102 0.30762,1.0254 0.78613,1.9653 0.49561,0.9229 1.19629,1.6236 0.70069,0.7007 1.64063,1.1279 0.93994,0.4102 2.13623,0.4102 1.21338,0 2.13623,-0.4102 0.93994,-0.4272 1.64062,-1.1279 0.70069,-0.7007 1.1792,-1.6236 0.49561,-0.9399 0.78614,-1.9653 0.30761,-1.0425 0.42724,-2.102 0.13672,-1.0767 0.15381,-2.0679 z" />
    <path
       inkscape:connector-curvature="0"
       id="path4215"
       style="font-style:normal;font-variant:normal;font-weight:300;font-stretch:normal;font-size:35px;line-height:125%;font-family:'Roboto Mono Light for Powerline';-inkscape-font-specification:'Roboto Mono Light for Powerline Light';letter-spacing:0px;word-spacing:0px;fill:#fc963a;fill-opacity:1;stroke:none;stroke-width:1px;stroke-linecap:butt;stroke-linejoin:miter;stroke-opacity:1"
       d="m 171.99516,1019.086 0.13672,1.7432 0.20508,-1.7432 3.62304,-19.24312 h 1.77735 l 3.62304,19.24312 0.20508,1.7945 0.15381,-1.7945 2.54639,-19.24312 h 1.91406 l -3.50342,24.88282 h -2.03369 l -3.79395,-20.7471 -3.81103,20.7471 h -2.03369 l -3.50342,-24.88282 h 1.93115 z" />
    <path
       id="path4243"
       style="font-style:normal;font-variant:normal;font-weight:normal;font-stretch:normal;font-size:medium;line-height:125%;font-family:sans-serif;-inkscape-font-specification:sans-serif;letter-spacing:0px;word-spacing:0px;fill:url(#linearGradient4274);fill-opacity:1;stroke:none;stroke-width:1px;stroke-linecap:butt;stroke-linejoin:miter;stroke-opacity:1"
       d="m 120.00785,1033.5274 q 0,0.8716 -0.27343,1.5552 -0.25635,0.7007 -0.73487,1.2476 -0.46142,0.5468 -1.07666,0.957 -0.61523,0.4272 -1.31591,0.752 -0.70069,0.3247 -1.43555,0.581 -0.73486,0.2564 -1.41846,0.4785 -0.87158,0.2735 -1.77734,0.5982 -0.88867,0.3418 -1.74317,0.769 -0.8374,0.4444 -1.58935,0.9912 -0.73486,0.564 -1.29883,1.2647 -0.54687,0.7007 -0.87158,1.5551 -0.30762,0.8716 -0.30762,1.9312 0,1.5552 0.68359,2.7515 0.70069,1.1963 1.81153,2.0166 1.11084,0.8203 2.49512,1.2304 1.40136,0.4273 2.81982,0.4273 1.58936,0 3.0249,-0.5298 1.43555,-0.5127 2.51221,-1.4526 1.09375,-0.94 1.74316,-2.2901 0.64942,-1.333 0.70069,-2.9736 h -2.06787 q -0.13672,1.2134 -0.59815,2.2046 -0.46142,1.0083 -1.23047,1.7261 -0.76904,0.7177 -1.81152,1.1108 -1.02539,0.4101 -2.27295,0.4101 -1.04248,0 -2.06787,-0.2905 -1.0083,-0.2734 -1.82861,-0.8545 -0.80323,-0.5639 -1.31592,-1.4355 -0.49561,-0.8545 -0.49561,-2.0166 0,-1.2476 0.58106,-2.1192 0.59814,-0.8715 1.5039,-1.4697 0.90576,-0.5981 1.98242,-1.0083 1.09375,-0.3931 2.06788,-0.6836 0.90576,-0.2734 1.82861,-0.6323 0.92285,-0.3418 1.77734,-0.8032 0.87158,-0.4615 1.62354,-1.0425 0.75195,-0.564 1.29883,-1.2988 0.56396,-0.7349 0.87158,-1.6407 0.32471,-0.8886 0.32471,-1.9824 0,-1.6406 -0.71778,-2.854 -0.70068,-1.2134 -1.82861,-2.0337 -1.12793,-0.8032 -2.56348,-1.2134 -1.43555,-0.393 -2.90527,-0.393 -1.64063,0 -3.17871,0.4785 -1.53809,0.4785 -2.75147,1.4014 -1.19629,0.9228 -1.94824,2.2729 -0.75195,1.3672 -0.80322,3.1104 h 2.06787 q 0.15381,-1.333 0.70068,-2.3755 0.56397,-1.0254 1.43555,-1.7261 0.87158,-0.6836 2.0166,-1.0425 1.14502,-0.3418 2.46094,-0.3418 1.09375,0 2.13623,0.2735 1.05957,0.2734 1.89697,0.8374 0.8374,0.581 1.3501,1.4526 0.51269,0.8887 0.51269,2.1191 z m -31.958004,-0.4785 0.136718,-1.7431 0.205079,1.7431 3.623046,19.2432 h 1.777344 l 3.623047,-19.2432 0.205078,-1.7944 0.153811,1.7944 2.546381,19.2432 h 1.91407 l -3.503421,-24.8828 h -2.033692 l -3.793946,20.747 -3.811035,-20.747 h -2.033691 l -3.503418,24.8828 h 1.931152 z m -10.493164,6.2891 h -10.97168 v -10.1514 h 12.646484 v -1.7773 H 64.55131 v 24.8828 h 14.611817 v -1.7944 H 66.585002 v -9.3824 h 10.97168 z m -19.174805,-11.9287 h -2.033692 l -11.416015,21.0034 -0.01709,-21.0034 h -2.033691 v 24.8828 h 2.033691 l 11.416016,-20.9693 0.01709,20.9693 h 2.033692 z"
       inkscape:connector-curvature="0" />
    <path
       id="path4249"
       style="font-style:normal;font-variant:normal;font-weight:300;font-stretch:normal;font-size:35px;line-height:125%;font-family:'Roboto Mono Light for Powerline';-inkscape-font-specification:'Roboto Mono Light for Powerline Light';letter-spacing:0px;word-spacing:0px;fill:url(#linearGradient4265);fill-opacity:1;stroke:none;stroke-width:1px;stroke-linecap:butt;stroke-linejoin:miter;stroke-opacity:1"
       d="m 171.99516,1033.0489 0.13672,-1.7431 0.20508,1.7431 3.62304,19.2432 h 1.77735 l 3.62304,-19.2432 0.20508,-1.7944 0.15381,1.7944 2.54639,19.2432 h 1.91406 l -3.50342,-24.8828 h -2.03369 l -3.79395,20.747 -3.81103,-20.747 h -2.03369 l -3.50342,24.8828 h 1.93115 z m -8.0835,5.1441 q -0.0171,-1.2647 -0.22216,-2.5977 -0.20508,-1.3159 -0.64942,-2.5635 -0.42725,-1.2304 -1.09375,-2.3242 -0.6665,-1.0766 -1.58935,-1.897 -0.90577,-0.8032 -2.10206,-1.2817 -1.19628,-0.4614 -2.6831,-0.4614 -1.46973,0 -2.66602,0.4614 -1.19629,0.4785 -2.13623,1.2817 -0.92285,0.8204 -1.60644,1.9141 -0.66651,1.0938 -1.11084,2.3242 -0.42725,1.2476 -0.64942,2.5635 -0.20507,1.3159 -0.22216,2.5806 v 3.2812 q 0.0171,1.2647 0.22216,2.5806 0.22217,1.333 0.64942,2.5635 0.42724,1.2475 1.09375,2.3413 0.68359,1.0937 1.60644,1.914 0.92285,0.8203 2.10205,1.2818 1.19629,0.4785 2.68311,0.4785 1.48682,0 2.68311,-0.4785 1.19628,-0.4615 2.11914,-1.2818 0.93994,-0.8032 1.60644,-1.8969 0.6665,-1.0938 1.09375,-2.3414 0.44434,-1.2304 0.64942,-2.5634 0.20507,-1.3159 0.22216,-2.5977 z m -2.0166,3.3154 q -0.0171,0.9912 -0.15381,2.0679 -0.13672,1.0766 -0.44433,2.102 -0.30762,1.0254 -0.80323,1.9483 -0.47851,0.9399 -1.17919,1.6406 -0.70069,0.7007 -1.64063,1.1108 -0.93994,0.4102 -2.13623,0.4102 -1.19629,0 -2.13623,-0.4273 -0.92285,-0.4101 -1.62354,-1.1108 -0.70068,-0.7007 -1.19629,-1.6406 -0.47851,-0.9229 -0.78613,-1.9483 -0.30762,-1.0254 -0.44433,-2.102 -0.13672,-1.0767 -0.15381,-2.0508 v -3.3154 q 0.0171,-0.9912 0.15381,-2.0679 0.1538,-1.0596 0.46142,-2.1021 0.30762,-1.0253 0.78613,-1.9653 0.49561,-0.9228 1.19629,-1.6235 0.70069,-0.7007 1.64063,-1.128 0.93994,-0.4101 2.13623,-0.4101 1.21338,0 2.13623,0.4101 0.93994,0.4273 1.64062,1.128 0.70069,0.7007 1.1792,1.6235 0.49561,0.94 0.78614,1.9653 0.30761,1.0425 0.42724,2.1021 0.13672,1.0767 0.15381,2.0679 z m -19.56787,-14.0991 h -2.03369 l -11.41602,21.0034 -0.0171,-21.0034 h -2.03369 v 24.8828 h 2.03369 l 11.41602,-20.9693 0.0171,20.9693 h 2.03369 z M 1.3202706,1065.3978 v -4.7779 a 33.445437,33.445437 0 0 0 33.4454364,-33.4454 h 4.77792 a 38.223357,38.223357 0 0 1 -38.2233564,38.2233 z m 0,-11.9448 v -4.7779 a 21.500638,21.500638 0 0 0 21.5006374,-21.5006 h 4.77792 A 26.278558,26.278558 0 0 1 1.3202706,1053.453 Z m 5.9723995,-14.3337 a 5.9723995,5.9723995 0 0 1 -5.9723995,-5.9724 5.9723995,5.9723995 0 0 1 5.9723995,-5.9724 5.9723995,5.9723995 0 0 1 5.9723989,5.9724 5.9723995,5.9723995 0 0 1 -5.9723989,5.9724 z"
       inkscape:connector-curvature="0" />
  </g>
</svg>
