<?xml version="1.0" encoding="UTF-8" standalone="no"?>
<!-- Created with Inkscape (http://www.inkscape.org/) -->

<svg
   xmlns:dc="http://purl.org/dc/elements/1.1/"
   xmlns:cc="http://creativecommons.org/ns#"
   xmlns:rdf="http://www.w3.org/1999/02/22-rdf-syntax-ns#"
   xmlns:svg="http://www.w3.org/2000/svg"
   xmlns="http://www.w3.org/2000/svg"
   xmlns:xlink="http://www.w3.org/1999/xlink"
   xmlns:sodipodi="http://sodipodi.sourceforge.net/DTD/sodipodi-0.dtd"
   xmlns:inkscape="http://www.inkscape.org/namespaces/inkscape"
   width="192"
   height="96"
   viewBox="0 0 192 96.000002"
   id="svg2"
   version="1.1"
   inkscape:version="0.91 r13725"
   sodipodi:docname="logo.svg">
  <defs
     id="defs4">
    <linearGradient
       inkscape:collect="always"
       id="linearGradient4268">
      <stop
         style="stop-color:#ffffff;stop-opacity:1;"
         offset="0"
         id="stop4270" />
      <stop
         style="stop-color:#ffffff;stop-opacity:0;"
         offset="1"
         id="stop4272" />
    </linearGradient>
    <linearGradient
       inkscape:collect="always"
       id="linearGradient4259">
      <stop
         style="stop-color:#fc963a;stop-opacity:1;"
         offset="0"
         id="stop4261" />
      <stop
         style="stop-color:#fc963a;stop-opacity:0;"
         offset="1"
         id="stop4263" />
    </linearGradient>
    <linearGradient
       id="linear0-5"
       gradientUnits="userSpaceOnUse"
       x1="40"
       y1="17"
       x2="54"
       y2="31"
       gradientTransform="matrix(0.34375,0,0,0.34375,0,0)">
      <stop
         offset="0"
         style="stop-color:rgb(2.352941%,2.352941%,2.352941%);stop-opacity:1;"
         id="stop4351" />
      <stop
         offset="1"
         style="stop-color:rgb(0%,0%,0%);stop-opacity:0;"
         id="stop4353" />
    </linearGradient>
    <filter
       height="100%"
       width="100%"
       y="0%"
       x="0%"
       filterUnits="objectBoundingBox"
       id="alpha">
      <feColorMatrix
         id="feColorMatrix4141"
         values="0 0 0 0 1 0 0 0 0 1 0 0 0 0 1 0 0 0 1 0"
         in="SourceGraphic"
         type="matrix" />
    </filter>
    <mask
       id="mask0">
      <g
         id="g4144"
         filter="url(#alpha)">
        <rect
           id="rect4146"
           style="fill:rgb(0%,0%,0%);fill-opacity:0.501961;stroke:none;"
           height="22"
           width="22"
           y="0"
           x="0" />
      </g>
    </mask>
    <clipPath
       id="clip1">
      <rect
         id="rect4149"
         height="22"
         width="22" />
    </clipPath>
    <g
       clip-path="url(#clip1)"
       id="surface6">
      <path
         id="path4152"
         d="M 3.4375 1.375 L 13.75 1.375 L 13.75 1.03125 L 3.4375 1.03125 Z M 3.4375 1.375 "
         style=" stroke:none;fill-rule:nonzero;fill:rgb(100%,100%,100%);fill-opacity:1;" />
    </g>
    <mask
       id="mask1">
      <g
         id="g4155"
         filter="url(#alpha)">
        <rect
           id="rect4157"
           style="fill:rgb(0%,0%,0%);fill-opacity:0.25098;stroke:none;"
           height="22"
           width="22"
           y="0"
           x="0" />
      </g>
    </mask>
    <clipPath
       id="clip2">
      <rect
         id="rect4160"
         height="22"
         width="22" />
    </clipPath>
    <g
       clip-path="url(#clip2)"
       id="surface9">
      <path
         id="path4163"
         d="M 3.4375 20.96875 L 18.5625 20.96875 L 18.5625 20.625 L 3.4375 20.625 Z M 3.4375 20.96875 "
         style=" stroke:none;fill-rule:nonzero;fill:rgb(0%,0%,0%);fill-opacity:1;" />
    </g>
    <mask
       id="mask2">
      <g
         id="g4166"
         filter="url(#alpha)">
        <rect
           id="rect4168"
           style="fill:rgb(0%,0%,0%);fill-opacity:0.501961;stroke:none;"
           height="22"
           width="22"
           y="0"
           x="0" />
      </g>
    </mask>
    <clipPath
       id="clip3">
      <rect
         id="rect4171"
         height="22"
         width="22" />
    </clipPath>
    <g
       clip-path="url(#clip3)"
       id="surface12">
      <path
         id="path4174"
         d="M 18.5625 5.84375 L 13.75 1.03125 L 13.75 5.84375 Z M 18.5625 5.84375 "
         style=" stroke:none;fill-rule:evenodd;fill:rgb(100%,100%,100%);fill-opacity:1;" />
    </g>
    <mask
       id="mask3">
      <g
         id="g4177"
         filter="url(#alpha)">
        <rect
           id="rect4179"
           style="fill:rgb(0%,0%,0%);fill-opacity:0.101961;stroke:none;"
           height="22"
           width="22"
           y="0"
           x="0" />
      </g>
    </mask>
    <linearGradient
       gradientTransform="matrix(0.34375,0,0,0.34375,0,0)"
       y2="31"
       x2="54"
       y1="17"
       x1="40"
       gradientUnits="userSpaceOnUse"
       id="linear0">
      <stop
         id="stop4182"
         style="stop-color:rgb(2.352941%,2.352941%,2.352941%);stop-opacity:1;"
         offset="0" />
      <stop
         id="stop4184"
         style="stop-color:rgb(0%,0%,0%);stop-opacity:0;"
         offset="1" />
    </linearGradient>
    <clipPath
       id="clip4">
      <rect
         id="rect4187"
         height="22"
         width="22" />
    </clipPath>
    <g
       clip-path="url(#clip4)"
       id="surface15">
      <path
         id="path4190"
         d="M 13.75 5.84375 L 18.5625 10.65625 L 18.5625 5.84375 Z M 13.75 5.84375 "
         style=" stroke:none;fill-rule:evenodd;fill:url(#linear0);" />
    </g>
    <linearGradient
       gradientTransform="matrix(0.34375,0,0,0.34375,-16.5,-114.24875)"
       y2="336.36"
       x2="0"
       y1="392.36"
       x1="0"
       gradientUnits="userSpaceOnUse"
       id="linear1">
      <stop
         id="stop4193"
         style="stop-color:rgb(100%,100%,100%);stop-opacity:0;"
         offset="0" />
      <stop
         id="stop4195"
         style="stop-color:rgb(100%,100%,100%);stop-opacity:0.2;"
         offset="1" />
    </linearGradient>
    <mask
       id="mask4">
      <g
         id="g4198"
         filter="url(#alpha)">
        <rect
           id="rect4200"
           style="fill:rgb(0%,0%,0%);fill-opacity:0.74902;stroke:none;"
           height="22"
           width="22"
           y="0"
           x="0" />
      </g>
    </mask>
    <clipPath
       id="clip5">
      <rect
         id="rect4203"
         height="22"
         width="22" />
    </clipPath>
    <g
       clip-path="url(#clip5)"
       id="surface18">
      <path
         id="path4206"
         d="M 7.578125 7.550781 L 7.578125 8.582031 C 11.183594 8.582031 14.109375 11.507812 14.109375 15.113281 L 15.140625 15.113281 C 15.140625 10.9375 11.753906 7.550781 7.578125 7.550781 M 7.578125 9.957031 L 7.578125 10.988281 C 9.855469 10.988281 11.703125 12.835938 11.703125 15.113281 L 12.734375 15.113281 C 12.734375 12.265625 10.425781 9.957031 7.578125 9.957031 M 8.78125 12.707031 C 8.113281 12.707031 7.578125 13.246094 7.578125 13.910156 C 7.578125 14.578125 8.113281 15.113281 8.78125 15.113281 C 9.445312 15.113281 9.984375 14.578125 9.984375 13.910156 C 9.984375 13.246094 9.445312 12.707031 8.78125 12.707031 "
         style=" stroke:none;fill-rule:nonzero;fill:rgb(100%,100%,100%);fill-opacity:1;" />
    </g>
    <linearGradient
       inkscape:collect="always"
       xlink:href="#linearGradient4259"
       id="linearGradient4265"
       x1="93.726387"
       y1="1004.6939"
       x2="93.726387"
       y2="1025.1495"
       gradientUnits="userSpaceOnUse"
       gradientTransform="translate(0,2)" />
    <linearGradient
       inkscape:collect="always"
       xlink:href="#linearGradient4268"
       id="linearGradient4274"
       x1="82.961601"
       y1="1004.7012"
       x2="82.961601"
       y2="1025.1555"
       gradientUnits="userSpaceOnUse"
       gradientTransform="translate(0,2)" />
  </defs>
  <sodipodi:namedview
     id="base"
     pagecolor="#ffffff"
     bordercolor="#666666"
     borderopacity="1.0"
     inkscape:pageopacity="0.0"
     inkscape:pageshadow="2"
     inkscape:zoom="2.8284271"
     inkscape:cx="120.20069"
     inkscape:cy="22.88703"
     inkscape:document-units="px"
     inkscape:current-layer="layer1"
     showgrid="false"
     units="px"
     inkscape:window-width="1600"
     inkscape:window-height="838"
     inkscape:window-x="0"
     inkscape:window-y="34"
     inkscape:window-maximized="1" />
  <metadata
     id="metadata7">
    <rdf:RDF>
      <cc:Work
         rdf:about="">
        <dc:format>image/svg+xml</dc:format>
        <dc:type
           rdf:resource="http://purl.org/dc/dcmitype/StillImage" />
        <dc:title />
      </cc:Work>
    </rdf:RDF>
  </metadata>
  <g
     inkscape:label="Layer 1"
     inkscape:groupmode="layer"
     id="layer1"
     transform="translate(0,-956.36216)">
    <g
       transform="matrix(2.3889598,0,0,2.3889598,-3.5966082,-1502.5219)"
       id="layer1-8"
       style="fill:#f27935"
       inkscape:label="Capa 1">
      <path
         id="path4171-5"
         transform="translate(0,1030.3622)"
         d="m 3,3 0,2 a 14,14 0 0 1 14,14 l 2,0 A 16,16 0 0 0 3,3 Z m 0,5 0,2 a 9,9 0 0 1 9,9 l 2,0 A 11,11 0 0 0 3,8 Z m 2.5,6 A 2.5,2.5 0 0 0 3,16.5 2.5,2.5 0 0 0 5.5,19 2.5,2.5 0 0 0 8,16.5 2.5,2.5 0 0 0 5.5,14 Z"
         style="fill:#fc963a;fill-opacity:1;stroke-width:0.1;stroke-linecap:round"
         inkscape:connector-curvature="0" />
    </g>
    <path
       inkscape:connector-curvature="0"
       id="path4203"
       style="font-style:normal;font-variant:normal;font-weight:normal;font-stretch:normal;font-size:medium;line-height:125%;font-family:sans-serif;-inkscape-font-specification:sans-serif;letter-spacing:0px;word-spacing:0px;fill:#ffffff;fill-opacity:1;stroke:none;stroke-width:1px;stroke-linecap:butt;stroke-linejoin:miter;stroke-opacity:1"
       d="m 60.631878,1004.1274 -2.033692,0 -11.416015,-21.00344 -0.01709,21.00344 -2.033691,0 0,-24.88283 2.033691,0 11.416016,20.96923 0.01709,-20.96923 2.033692,0 0,24.88283 z" />
    <path
       inkscape:connector-curvature="0"
       id="path4205"
       style="font-style:normal;font-variant:normal;font-weight:normal;font-stretch:normal;font-size:medium;line-height:125%;font-family:sans-serif;-inkscape-font-specification:sans-serif;letter-spacing:0px;word-spacing:0px;fill:#ffffff;fill-opacity:1;stroke:none;stroke-width:1px;stroke-linecap:butt;stroke-linejoin:miter;stroke-opacity:1"
       d="m 79.806683,992.19867 -10.97168,0 0,10.15133 12.646484,0 0,1.7774 -14.680176,0 0,-24.88283 14.611817,0 0,1.79443 -12.578125,0 0,9.38233 10.97168,0 0,1.77734 z" />
    <path
       inkscape:connector-curvature="0"
       id="path4207"
       style="font-style:normal;font-variant:normal;font-weight:normal;font-stretch:normal;font-size:medium;line-height:125%;font-family:sans-serif;-inkscape-font-specification:sans-serif;letter-spacing:0px;word-spacing:0px;fill:#ffffff;fill-opacity:1;stroke:none;stroke-width:1px;stroke-linecap:butt;stroke-linejoin:miter;stroke-opacity:1"
       d="m 90.299847,998.48773 0.136718,1.74317 0.205079,-1.74317 3.623046,-19.24316 1.777344,0 3.623047,19.24316 0.205078,1.79447 0.153811,-1.79447 2.54638,-19.24316 1.91407,0 -3.50342,24.88283 -2.033692,0 -3.793946,-20.74709 -3.811035,20.74709 -2.033691,0 -3.503418,-24.88283 1.931152,0 2.563477,19.24316 z" />
    <path
       inkscape:connector-curvature="0"
       id="path4209"
       style="font-style:normal;font-variant:normal;font-weight:normal;font-stretch:normal;font-size:medium;line-height:125%;font-family:sans-serif;-inkscape-font-specification:sans-serif;letter-spacing:0px;word-spacing:0px;fill:#ffffff;fill-opacity:1;stroke:none;stroke-width:1px;stroke-linecap:butt;stroke-linejoin:miter;stroke-opacity:1"
       d="m 122.25785,998.00922 q 0,-0.87159 -0.27343,-1.55518 -0.25635,-0.70068 -0.73487,-1.24756 -0.46142,-0.54687 -1.07666,-0.95703 -0.61523,-0.42725 -1.31591,-0.75195 -0.70069,-0.32471 -1.43555,-0.58106 -0.73486,-0.25634 -1.41846,-0.47851 -0.87158,-0.27344 -1.77734,-0.59815 -0.88867,-0.34179 -1.74317,-0.76904 -0.8374,-0.44434 -1.58935,-0.99121 -0.73486,-0.56397 -1.29883,-1.26465 -0.54687,-0.70068 -0.87158,-1.55518 -0.30762,-0.87158 -0.30762,-1.93115 0,-1.55517 0.68359,-2.75146 0.70069,-1.19629 1.81153,-2.0166 1.11084,-0.82032 2.49512,-1.23047 1.40136,-0.42725 2.81982,-0.42725 1.58936,0 3.0249,0.52979 1.43555,0.51269 2.51221,1.45263 1.09375,0.93994 1.74316,2.29004 0.64942,1.33301 0.70069,2.97363 l -2.06787,0 q -0.13672,-1.21337 -0.59815,-2.20459 -0.46142,-1.0083 -1.23047,-1.72607 -0.76904,-0.71777 -1.81152,-1.11084 -1.02539,-0.41016 -2.27295,-0.41016 -1.04248,0 -2.06787,0.29053 -1.0083,0.27344 -1.82861,0.85449 -0.80323,0.56397 -1.31592,1.43555 -0.49561,0.85449 -0.49561,2.0166 0,1.24756 0.58106,2.11914 0.59814,0.87159 1.5039,1.46973 0.90576,0.59814 1.98242,1.0083 1.09375,0.39307 2.06788,0.68359 0.90576,0.27344 1.82861,0.63233 0.92285,0.3418 1.77734,0.80322 0.87158,0.46143 1.62354,1.04248 0.75195,0.56397 1.29883,1.29883 0.56396,0.73486 0.87158,1.64062 0.32471,0.88868 0.32471,1.98243 0,1.64062 -0.71778,2.85396 -0.70068,1.2134 -1.82861,2.0337 -1.12793,0.8033 -2.56348,1.2134 -1.43555,0.3931 -2.90527,0.3931 -1.64063,0 -3.17871,-0.4785 -1.53809,-0.4786 -2.75147,-1.4014 -1.19629,-0.9229 -1.94824,-2.273 -0.75195,-1.36714 -0.80322,-3.11031 l 2.06787,0 q 0.15381,1.33301 0.70068,2.37549 0.56397,1.02542 1.43555,1.72612 0.87158,0.6835 2.0166,1.0424 1.14502,0.3418 2.46094,0.3418 1.09375,0 2.13623,-0.2734 1.05957,-0.2734 1.89697,-0.8374 0.8374,-0.5811 1.3501,-1.4526 0.51269,-0.88871 0.51269,-2.11918 z" />
    <path
       inkscape:connector-curvature="0"
       id="path4211"
       style="font-style:normal;font-variant:normal;font-weight:300;font-stretch:normal;font-size:35px;line-height:125%;font-family:'Roboto Mono Light for Powerline';-inkscape-font-specification:'Roboto Mono Light for Powerline Light';letter-spacing:0px;word-spacing:0px;fill:#fc963a;fill-opacity:1;stroke:none;stroke-width:1px;stroke-linecap:butt;stroke-linejoin:miter;stroke-opacity:1"
       d="m 144.57719,1004.1274 -2.03369,0 -11.41602,-21.00344 -0.0171,21.00344 -2.03369,0 0,-24.88283 2.03369,0 11.41602,20.96923 0.0171,-20.96923 2.03369,0 0,24.88283 z" />
    <path
       inkscape:connector-curvature="0"
       id="path4213"
       style="font-style:normal;font-variant:normal;font-weight:300;font-stretch:normal;font-size:35px;line-height:125%;font-family:'Roboto Mono Light for Powerline';-inkscape-font-specification:'Roboto Mono Light for Powerline Light';letter-spacing:0px;word-spacing:0px;fill:#fc963a;fill-opacity:1;stroke:none;stroke-width:1px;stroke-linecap:butt;stroke-linejoin:miter;stroke-opacity:1"
       d="m 166.16166,993.34369 q -0.0171,1.26465 -0.22216,2.59766 -0.20508,1.31591 -0.64942,2.56347 -0.42725,1.23047 -1.09375,2.32418 -0.6665,1.0767 -1.58935,1.897 -0.90577,0.8032 -2.10206,1.2818 -1.19628,0.4614 -2.6831,0.4614 -1.46973,0 -2.66602,-0.4614 -1.19629,-0.4786 -2.13623,-1.2818 -0.92285,-0.8203 -1.60644,-1.914 -0.66651,-1.0938 -1.11084,-2.32427 -0.42725,-1.24756 -0.64942,-2.56347 -0.20507,-1.31592 -0.22216,-2.58057 l 0,-3.28125 q 0.0171,-1.26465 0.22216,-2.58057 0.22217,-1.33301 0.64942,-2.56347 0.42724,-1.24756 1.09375,-2.34131 0.68359,-1.09375 1.60644,-1.91407 0.92285,-0.82031 2.10205,-1.28173 1.19629,-0.47852 2.68311,-0.47852 1.48682,0 2.68311,0.47852 1.19628,0.46142 2.11914,1.28173 0.93994,0.80323 1.60644,1.89698 0.6665,1.09375 1.09375,2.34131 0.44434,1.23046 0.64942,2.56347 0.20507,1.31592 0.22216,2.59766 l 0,3.28125 z m -2.0166,-3.31543 q -0.0171,-0.99121 -0.15381,-2.06787 -0.13672,-1.07666 -0.44433,-2.10205 -0.30762,-1.02539 -0.80323,-1.94824 -0.47851,-0.93995 -1.17919,-1.64063 -0.70069,-0.70068 -1.64063,-1.11084 -0.93994,-0.41016 -2.13623,-0.41016 -1.19629,0 -2.13623,0.42725 -0.92285,0.41016 -1.62354,1.11084 -0.70068,0.70068 -1.19629,1.64063 -0.47851,0.92285 -0.78613,1.94824 -0.30762,1.02539 -0.44433,2.10205 -0.13672,1.07666 -0.15381,2.05078 l 0,3.31543 q 0.0171,0.99121 0.15381,2.06787 0.1538,1.05957 0.46142,2.10205 0.30762,1.02539 0.78613,1.96533 0.49561,0.92286 1.19629,1.62356 0.70069,0.7007 1.64063,1.1279 0.93994,0.4102 2.13623,0.4102 1.21338,0 2.13623,-0.4102 0.93994,-0.4272 1.64062,-1.1279 0.70069,-0.7007 1.1792,-1.62356 0.49561,-0.93994 0.78614,-1.96533 0.30761,-1.04248 0.42724,-2.10205 0.13672,-1.07666 0.15381,-2.06787 l 0,-3.31543 z" />
    <path
       inkscape:connector-curvature="0"
       id="path4215"
       style="font-style:normal;font-variant:normal;font-weight:300;font-stretch:normal;font-size:35px;line-height:125%;font-family:'Roboto Mono Light for Powerline';-inkscape-font-specification:'Roboto Mono Light for Powerline Light';letter-spacing:0px;word-spacing:0px;fill:#fc963a;fill-opacity:1;stroke:none;stroke-width:1px;stroke-linecap:butt;stroke-linejoin:miter;stroke-opacity:1"
       d="m 174.24516,998.48773 0.13672,1.74317 0.20508,-1.74317 3.62304,-19.24316 1.77735,0 3.62304,19.24316 0.20508,1.79447 0.15381,-1.79447 2.54639,-19.24316 1.91406,0 -3.50342,24.88283 -2.03369,0 -3.79395,-20.74709 -3.81103,20.74709 -2.03369,0 -3.50342,-24.88283 1.93115,0 2.56348,19.24316 z" />
    <g
       transform="matrix(2.3889598,0,0,-2.3889598,-3.5966082,3511.4603)"
       id="layer1-8-7"
       style="fill:#f27935"
       inkscape:label="Capa 1" />
    <path
       id="path4243"
       style="font-style:normal;font-variant:normal;font-weight:normal;font-stretch:normal;font-size:medium;line-height:125%;font-family:sans-serif;-inkscape-font-specification:sans-serif;letter-spacing:0px;word-spacing:0px;fill:url(#linearGradient4274);fill-opacity:1;stroke:none;stroke-width:1px;stroke-linecap:butt;stroke-linejoin:miter;stroke-opacity:1"
       d="m 122.25785,1012.9291 q 0,0.8716 -0.27343,1.5552 -0.25635,0.7007 -0.73487,1.2476 -0.46142,0.5468 -1.07666,0.957 -0.61523,0.4272 -1.31591,0.752 -0.70069,0.3247 -1.43555,0.581 -0.73486,0.2564 -1.41846,0.4785 -0.87158,0.2735 -1.77734,0.5982 -0.88867,0.3418 -1.74317,0.769 -0.8374,0.4444 -1.58935,0.9912 -0.73486,0.564 -1.29883,1.2647 -0.54687,0.7007 -0.87158,1.5551 -0.30762,0.8716 -0.30762,1.9312 0,1.5552 0.68359,2.7515 0.70069,1.1963 1.81153,2.0166 1.11084,0.8203 2.49512,1.2304 1.40136,0.4273 2.81982,0.4273 1.58936,0 3.0249,-0.5298 1.43555,-0.5127 2.51221,-1.4526 1.09375,-0.94 1.74316,-2.2901 0.64942,-1.333 0.70069,-2.9736 l -2.06787,0 q -0.13672,1.2134 -0.59815,2.2046 -0.46142,1.0083 -1.23047,1.7261 -0.76904,0.7177 -1.81152,1.1108 -1.02539,0.4101 -2.27295,0.4101 -1.04248,0 -2.06787,-0.2905 -1.0083,-0.2734 -1.82861,-0.8545 -0.80323,-0.5639 -1.31592,-1.4355 -0.49561,-0.8545 -0.49561,-2.0166 0,-1.2476 0.58106,-2.1192 0.59814,-0.8715 1.5039,-1.4697 0.90576,-0.5981 1.98242,-1.0083 1.09375,-0.3931 2.06788,-0.6836 0.90576,-0.2734 1.82861,-0.6323 0.92285,-0.3418 1.77734,-0.8032 0.87158,-0.4615 1.62354,-1.0425 0.75195,-0.564 1.29883,-1.2988 0.56396,-0.7349 0.87158,-1.6407 0.32471,-0.8886 0.32471,-1.9824 0,-1.6406 -0.71778,-2.854 -0.70068,-1.2134 -1.82861,-2.0337 -1.12793,-0.8032 -2.56348,-1.2134 -1.43555,-0.393 -2.90527,-0.393 -1.64063,0 -3.17871,0.4785 -1.53809,0.4785 -2.75147,1.4014 -1.19629,0.9228 -1.94824,2.2729 -0.75195,1.3672 -0.80322,3.1104 l 2.06787,0 q 0.15381,-1.333 0.70068,-2.3755 0.56397,-1.0254 1.43555,-1.7261 0.87158,-0.6836 2.0166,-1.0425 1.14502,-0.3418 2.46094,-0.3418 1.09375,0 2.13623,0.2735 1.05957,0.2734 1.89697,0.8374 0.8374,0.581 1.3501,1.4526 0.51269,0.8887 0.51269,2.1191 z m -31.958003,-0.4785 0.136718,-1.7431 0.205079,1.7431 3.623046,19.2432 1.777344,0 3.623047,-19.2432 0.205078,-1.7944 0.153811,1.7944 2.54638,19.2432 1.91407,0 -3.50342,-24.8828 -2.033692,0 -3.793946,20.747 -3.811035,-20.747 -2.033691,0 -3.503418,24.8828 1.931152,0 2.563477,-19.2432 z m -10.493164,6.2891 -10.97168,0 0,-10.1514 12.646484,0 0,-1.7773 -14.680176,0 0,24.8828 14.611817,0 0,-1.7944 -12.578125,0 0,-9.3824 10.97168,0 0,-1.7773 z m -19.174805,-11.9287 -2.033692,0 -11.416015,21.0034 -0.01709,-21.0034 -2.033691,0 0,24.8828 2.033691,0 11.416016,-20.9693 0.01709,20.9693 2.033692,0 0,-24.8828 z"
       inkscape:connector-curvature="0" />
    <path
       id="path4249"
       style="font-style:normal;font-variant:normal;font-weight:300;font-stretch:normal;font-size:35px;line-height:125%;font-family:'Roboto Mono Light for Powerline';-inkscape-font-specification:'Roboto Mono Light for Powerline Light';letter-spacing:0px;word-spacing:0px;fill:url(#linearGradient4265);fill-opacity:1;stroke:none;stroke-width:1px;stroke-linecap:butt;stroke-linejoin:miter;stroke-opacity:1"
       d="m 174.24516,1012.4506 0.13672,-1.7431 0.20508,1.7431 3.62304,19.2432 1.77735,0 3.62304,-19.2432 0.20508,-1.7944 0.15381,1.7944 2.54639,19.2432 1.91406,0 -3.50342,-24.8828 -2.03369,0 -3.79395,20.747 -3.81103,-20.747 -2.03369,0 -3.50342,24.8828 1.93115,0 2.56348,-19.2432 z m -8.0835,5.1441 q -0.0171,-1.2647 -0.22216,-2.5977 -0.20508,-1.3159 -0.64942,-2.5635 -0.42725,-1.2304 -1.09375,-2.3242 -0.6665,-1.0766 -1.58935,-1.897 -0.90577,-0.8032 -2.10206,-1.2817 -1.19628,-0.4614 -2.6831,-0.4614 -1.46973,0 -2.66602,0.4614 -1.19629,0.4785 -2.13623,1.2817 -0.92285,0.8204 -1.60644,1.9141 -0.66651,1.0938 -1.11084,2.3242 -0.42725,1.2476 -0.64942,2.5635 -0.20507,1.3159 -0.22216,2.5806 l 0,3.2812 q 0.0171,1.2647 0.22216,2.5806 0.22217,1.333 0.64942,2.5635 0.42724,1.2475 1.09375,2.3413 0.68359,1.0937 1.60644,1.914 0.92285,0.8203 2.10205,1.2818 1.19629,0.4785 2.68311,0.4785 1.48682,0 2.68311,-0.4785 1.19628,-0.4615 2.11914,-1.2818 0.93994,-0.8032 1.60644,-1.8969 0.6665,-1.0938 1.09375,-2.3414 0.44434,-1.2304 0.64942,-2.5634 0.20507,-1.3159 0.22216,-2.5977 l 0,-3.2812 z m -2.0166,3.3154 q -0.0171,0.9912 -0.15381,2.0679 -0.13672,1.0766 -0.44433,2.102 -0.30762,1.0254 -0.80323,1.9483 -0.47851,0.9399 -1.17919,1.6406 -0.70069,0.7007 -1.64063,1.1108 -0.93994,0.4102 -2.13623,0.4102 -1.19629,0 -2.13623,-0.4273 -0.92285,-0.4101 -1.62354,-1.1108 -0.70068,-0.7007 -1.19629,-1.6406 -0.47851,-0.9229 -0.78613,-1.9483 -0.30762,-1.0254 -0.44433,-2.102 -0.13672,-1.0767 -0.15381,-2.0508 l 0,-3.3154 q 0.0171,-0.9912 0.15381,-2.0679 0.1538,-1.0596 0.46142,-2.1021 0.30762,-1.0253 0.78613,-1.9653 0.49561,-0.9228 1.19629,-1.6235 0.70069,-0.7007 1.64063,-1.128 0.93994,-0.4101 2.13623,-0.4101 1.21338,0 2.13623,0.4101 0.93994,0.4273 1.64062,1.128 0.70069,0.7007 1.1792,1.6235 0.49561,0.94 0.78614,1.9653 0.30761,1.0425 0.42724,2.1021 0.13672,1.0767 0.15381,2.0679 l 0,3.3154 z m -19.56787,-14.0991 -2.03369,0 -11.41602,21.0034 -0.0171,-21.0034 -2.03369,0 0,24.8828 2.03369,0 11.41602,-20.9693 0.0171,20.9693 2.03369,0 0,-24.8828 z m -141.0069188,37.9885 0,-4.7779 a 33.445437,33.445437 0 0 0 33.4454368,-33.4454 l 4.77792,0 a 38.223357,38.223357 0 0 1 -38.2233568,38.2233 z m 0,-11.9448 0,-4.7779 a 21.500638,21.500638 0 0 0 21.5006378,-21.5006 l 4.77792,0 a 26.278558,26.278558 0 0 1 -26.2785578,26.2785 z m 5.9723995,-14.3337 a 5.9723995,5.9723995 0 0 1 -5.9723995,-5.9724 5.9723995,5.9723995 0 0 1 5.9723995,-5.9724 5.9723995,5.9723995 0 0 1 5.9723993,5.9724 5.9723995,5.9723995 0 0 1 -5.9723993,5.9724 z"
       inkscape:connector-curvature="0" />
  </g>
</svg>
